<?xml version="1.0" encoding="utf-8"?>
<!-- Generator: Adobe Illustrator 25.2.0, SVG Export Plug-In . SVG Version: 6.00 Build 0)  -->
<svg version="1.1" id="Layer_1" xmlns="http://www.w3.org/2000/svg" xmlns:xlink="http://www.w3.org/1999/xlink" x="0px" y="0px"
	 viewBox="0 0 194.91 129.22" style="enable-background:new 0 0 194.91 129.22;" xml:space="preserve">
<g>
	<g>
		<path d="M-143.01,6c2.34-0.62,4.65-1.51,7.03-1.82c6-0.78,12.04-1.78,18.07-1.8c5.29-0.01,10.62,0.98,15.87,1.93
			c4.54,0.82,9.1,1.84,13.41,3.43c3.31,1.22,6.95,2.86,9.16,5.42c2.63,3.05,4.66,7.1,5.56,11.04c1.26,5.53,1.41,11.33,1.72,17.04
			c0.15,2.82-0.54,5.67-0.59,8.51c-0.07,3.73,0.2,7.47,0.14,11.2c-0.04,3.08-0.32,6.16-0.54,9.23c-0.34,4.82-0.71,9.64-1.09,14.45
			c-0.34,4.31-0.55,8.64-1.14,12.92c-0.52,3.8-1.47,7.53-2.27,11.29c-0.37,1.73-0.59,3.56-1.34,5.12c-0.39,0.82-1.73,1.27-2.72,1.71
			c-2.24,1-4.5,1.95-6.8,2.8c-1.51,0.56-3.1,0.88-4.65,1.34c-4.09,1.22-8.14,2.58-12.28,3.63c-2.02,0.51-4.18,0.41-6.27,0.65
			c-2.48,0.29-4.95,0.63-7.42,0.97c-3.28,0.45-6.54,1.01-9.83,1.35c-2.67,0.27-5.38,0.52-8.04,0.34c-3.91-0.27-7.83-0.69-11.66-1.47
			c-5.48-1.12-10.88-2.64-16.32-3.97c-3.49-0.86-7.03-1.57-10.47-2.6c-1.5-0.45-2.78-1.61-4.21-2.35c-2.92-1.51-5.87-2.97-8.82-4.43
			c-2.37-1.17-4.75-2.32-7.15-3.44c-2.64-1.24-5.28-2.48-7.97-3.62c-2.17-0.92-4.34-2.01-6.62-2.44c-2.93-0.55-5.98-0.48-8.97-0.73
			c-2.4-0.2-4.79-0.72-7.18-0.69c-2.85,0.03-5.73,0.28-8.52,0.84c-3.1,0.62-6.17,1.52-9.13,2.63c-2.43,0.92-4.76,2.21-6.99,3.56
			c-3.21,1.95-8.5-0.24-8.87-3.94c-0.21-2.09,0.12-4.24,0.12-6.36c-0.02-4.36-0.12-8.72-0.15-13.09c-0.02-5.09,0-10.18,0.01-15.27
			c0.01-4.48-0.03-8.97,0.05-13.45c0.07-4.03,0.33-8.06,0.38-12.09c0.01-0.97-1-2.25-0.64-2.86c0.71-1.23,1.89-2.41,3.16-3.06
			c3.16-1.61,6.42-3.11,9.76-4.27c3.41-1.19,6.93-2.23,10.49-2.81c5.49-0.89,11.05-1.75,16.59-1.82c3.98-0.05,7.98,1.17,11.95,1.9
			c3.26,0.6,6.63,0.98,9.72,2.09c4.58,1.65,8.99,3.8,13.42,5.85c3.12,1.44,6.16,3.04,9.21,4.62c1.6,0.83,3.14,1.8,4.71,2.69
			c0.16,0.09,0.52,0.14,0.53,0.11c0.3-0.76,0.76-1.53,0.79-2.3c0.11-3.13,0.08-6.27,0.11-9.41c0.02-2.23-0.3-4.55,0.18-6.68
			c1.15-5.07,2.66-10.03,7.26-13.31c2.04-1.46,3.67-3.62,5.87-4.71c2.88-1.43,6.13-2.13,9.24-3.11c1.33-0.42,2.69-0.76,4.04-1.14
			C-143.08,5.76-143.04,5.88-143.01,6z M-251.72,97.78c-0.02-0.02,0.3,0.42,0.49,0.37c4.14-1.06,8.22-2.51,12.42-3.17
			c4.61-0.73,9.33-0.95,14-1.02c3.85-0.06,7.73,0.19,11.54,0.72c3.02,0.42,6.02,1.29,8.91,2.31c2.37,0.84,4.56,2.19,6.83,3.31
			c3.77,1.86,7.55,3.72,11.31,5.59c3.05,1.52,6,3.27,9.14,4.57c4.85,2,9.76,3.9,14.76,5.45c3.41,1.05,7.01,1.51,10.55,2.08
			c4.57,0.74,9.16,1.49,13.77,1.92c2.42,0.23,4.91-0.2,7.37-0.37c2.34-0.16,4.7-0.26,7.03-0.57c2.16-0.29,4.29-0.86,6.45-1.21
			c3.33-0.54,6.7-0.88,10-1.55c1.91-0.39,3.69-1.33,5.57-1.92c1.8-0.57,3.68-0.9,5.45-1.54c1.78-0.65,3.6-1.35,5.18-2.38
			c2.23-1.45,5.23-2.8,6.13-4.95c1.43-3.38,1.48-7.37,1.95-11.12c0.53-4.18,0.89-8.38,1.32-12.57c0.6-5.91,1.27-11.82,1.75-17.74
			c0.17-2.17-0.15-4.38-0.18-6.57c-0.02-1.61,0.1-3.22,0.09-4.83c0-0.41-0.26-0.81-0.4-1.22c-0.6,0.5-1.24,0.95-1.8,1.5
			c-1.87,1.84-3.41,4.28-5.62,5.45c-3.7,1.95-7.74,3.38-11.79,4.5c-4.12,1.14-8.4,1.82-12.65,2.37c-2.83,0.37-5.74,0.05-8.6,0.23
			c-2.7,0.17-5.41,1-8.06,0.83c-4.12-0.27-8.24-0.92-12.28-1.82c-3.53-0.78-7.05-1.87-10.39-3.26c-5.28-2.2-10.41-4.77-15.6-7.2
			c-4.03-1.89-8.05-3.81-12.09-5.68c-3.54-1.64-7.09-3.27-10.67-4.8c-1.98-0.85-4.08-1.4-6.06-2.24c-1.65-0.7-3.15-1.78-4.83-2.39
			c-1.79-0.65-3.68-1.11-5.56-1.38c-4.8-0.7-9.62-1.68-14.44-1.72c-4.21-0.03-8.45,0.96-12.63,1.74c-3.2,0.59-6.36,1.45-9.49,2.38
			c-2.24,0.66-4.47,1.49-6.55,2.53c-1.08,0.54-2.5,1.64-2.63,2.63c-0.54,4.09-0.74,8.23-0.87,12.35c-0.14,4.37-0.11,8.74-0.06,13.11
			c0.06,5.34,0.14,10.68,0.36,16.01C-252.46,90.12-252.05,93.71-251.72,97.78z M-144.57,12.8c-5.15,0.81-9.12,3.71-12.56,7.39
			c-3.09,3.32-5.46,7.28-4.59,11.87c0.51,2.66,2.11,5.99,4.27,7.26c3.63,2.14,8.08,2.89,12.21,4.18c0.38,0.12,1.21-0.04,1.22-0.14
			c0.11-0.97,0.07-1.95,0.1-2.92c0.06-1.99,0.21-3.99,0.2-5.98c-0.02-2.81-0.99-5.97-0.02-8.34c0.98-2.38,3.63-4.33,5.96-5.81
			c2.11-1.34,4.73-2.13,7.23-2.58c4.74-0.84,9.54-1.6,14.34-1.76c5.21-0.17,10.38,0.57,14.87,3.7c3.82,2.66,6.08,6.24,6.41,10.9
			c0.26,3.78,0.43,7.58,0.44,11.37c0.01,2.96-0.36,5.92-0.42,8.88c-0.02,0.96,0.38,1.92,0.59,2.88c0.28-0.1,0.63-0.13,0.82-0.32
			c3.27-3.18,6.78-6.16,9.66-9.65c1.62-1.96,2.65-4.7,3.12-7.24c0.72-3.98,1-8.09,0.98-12.14c-0.02-3.84-2.41-6.67-5.59-8.46
			c-3.06-1.72-6.33-3.31-9.7-4.18c-5.32-1.36-10.77-2.45-16.23-2.95c-4.78-0.44-9.65-0.04-14.47,0.23
			c-2.77,0.15-5.53,0.66-8.25,1.23C-137.55,10.97-141.05,11.93-144.57,12.8z M-113.27,59.52c0.01-0.17,0.02-0.34,0.03-0.51
			c2.81-0.56,5.64-1.02,8.4-1.74c1.05-0.28,2.68-1.09,2.76-1.81c0.27-2.44-0.01-4.95-0.12-7.42c-0.02-0.35-0.27-0.69-0.41-1.04
			c-1.63,0.71-3.22,1.57-4.91,2.11c-3.19,1.03-6.39,2.35-9.67,2.68c-4.54,0.46-9.16,0.21-13.74,0.09c-2.84-0.08-5.68-0.39-8.49-0.78
			c-3.13-0.43-6.28-0.88-9.34-1.67c-3.58-0.92-7.05-2.24-10.58-3.33c-0.74-0.23-1.56-0.21-2.35-0.31c-0.12,1.15-0.26,2.3-0.34,3.46
			c-0.03,0.38-0.05,1.03,0.14,1.12c2.03,0.97,4.08,1.92,6.18,2.73c4,1.54,7.94,3.41,12.08,4.37c4.83,1.12,9.84,1.67,14.81,1.98
			C-123.66,59.77-118.45,59.52-113.27,59.52z M-115.01,28.8c2.28,0.23,2.07,1.72,2.06,3.57c-0.02,3.47,0.42,6.95,0.69,10.43
			c0.01,0.1,0.32,0.28,0.39,0.24c2.18-1.24,4.44-2.36,6.49-3.79c3.84-2.68,4.63-6.82,3.71-10.91c-0.4-1.77-2.69-3.83-4.54-4.39
			c-3.71-1.11-7.71-1.83-11.56-1.7c-5.66,0.2-11.28,1.31-15.97,4.98c-0.31,0.24-0.75,0.49-0.83,0.81c-0.13,0.55-0.05,1.67,0,1.68
			c2.89,0.18,5.79,0.47,8.67,0.31C-122.29,29.81-118.7,29.23-115.01,28.8z M-136.16,36.71c-0.11,0.71-0.28,1.44-0.33,2.17
			c-0.09,1.35,0.05,2.73-0.2,4.04c-0.5,2.61,1.37,1.64,2.46,1.71c2.58,0.16,5.16,0.25,7.75,0.29c2.09,0.03,4.19,0.04,6.27-0.13
			c0.49-0.04,1.31-0.82,1.32-1.28c0.04-1.84-0.13-3.69-0.33-5.53c-0.04-0.41-0.53-1.14-0.75-1.12c-2.78,0.3-5.55,0.97-8.33,1.01
			C-130.61,37.9-132.93,37.22-136.16,36.71z"/>
		<polygon points="-87.32,118.25 -87.32,118.2 -87.28,118.22 		"/>
		<path d="M-217.2,89.37c-2.09-0.35-4.72-1.06-7.36-1.13c-2.02-0.05-4.09,0.6-6.09,1.12c-2.22,0.59-4.33,1.62-6.57,2.01
			c-1.51,0.27-3.7,0.34-4.61-0.53c-1.64-1.55-2.9-3.75-3.66-5.91c-0.77-2.19-0.82-4.65-1.04-7.01c-0.29-3.01-0.49-6.03-0.64-9.05
			c-0.13-2.56-0.42-5.18-0.09-7.69c0.37-2.84,1.07-5.72,2.16-8.35c0.82-1.97,2.15-4.13,3.87-5.24c2.46-1.59,5.47-2.36,8.28-3.38
			c1.87-0.68,3.77-1.31,5.7-1.76c2.38-0.56,4.81-0.99,7.23-1.36c4.63-0.72,11.92,2.85,13.72,6.98c0.99,2.27,1.19,4.94,1.4,7.46
			c0.19,2.33-0.14,4.7-0.12,7.04c0.02,4.13,0.1,8.26,0.21,12.39c0.11,4.22-0.11,8.29-3.16,11.7
			C-210.39,89.35-213.38,89.67-217.2,89.37z M-218.29,81.24c0.27,0.22,0.54,0.44,0.8,0.67c1.48-1.59,3.46-2.97,4.29-4.85
			c0.79-1.8,0.43-4.12,0.5-6.21c0.08-2.37,0.08-4.74,0.12-7.11c0.03-1.66,0.07-3.32,0.12-4.98c0.06-2.11,0.22-4.22,0.14-6.32
			c-0.03-0.68-0.61-1.84-1.07-1.92c-2.58-0.41-5.2-0.6-7.81-0.71c-0.35-0.02-1.03,0.81-1.05,1.27c-0.17,3.11-0.13,6.22-0.29,9.33
			c-0.14,2.67-0.49,5.34-0.66,8.01c-0.17,2.69-0.29,5.38-0.31,8.07c-0.01,1.31-0.17,3.3,0.55,3.79
			C-221.74,81.1-219.88,80.97-218.29,81.24z M-209.57,87.77c0.05-0.03,0.07-0.05,0.1-0.07c-0.04-0.03-0.07-0.07-0.11-0.1
			c-0.01-0.01-0.05,0.04-0.08,0.06C-209.63,87.7-209.6,87.73-209.57,87.77z"/>
		<path d="M-129.74,115.46c-3.34-0.31-6.98-0.79-10.63-0.95c-3.61-0.16-7.34,0.55-10.82-0.13c-3.16-0.62-6.18-2.39-9.02-4.06
			c-3.32-1.96-3.9-5.32-3.45-8.89c0.49-3.81,1.02-7.62,1.59-11.43c0.38-2.57,0.84-5.12,1.3-7.67c0.52-2.91,0.64-5.98,1.74-8.65
			c0.84-2.07,2.59-4.46,4.52-5.21c2.5-0.98,5.61-0.82,8.39-0.52c3.12,0.34,6.13,1.61,9.24,2.07c3.56,0.53,7.41-0.06,10.7,1.09
			c2.51,0.88,4.88,3.37,6.31,5.75c1.11,1.86,0.97,4.66,0.88,7.02c-0.16,4.19-0.74,8.36-1.07,12.54c-0.2,2.5-0.14,5.04-0.46,7.52
			c-0.23,1.8-0.47,3.87-1.49,5.23c-1.68,2.24-3.97,4.04-6.05,5.96C-128.35,115.4-128.95,115.32-129.74,115.46z M-132.33,109.03
			c1.72-0.19,4.56-4.17,4.63-6.51c0.06-2.07,0.2-4.14,0.48-6.19c0.26-1.95,0.95-3.85,1.09-5.8c0.22-3.16,0.33-6.35,0.12-9.5
			c-0.09-1.34-0.75-3.18-1.75-3.77c-1.23-0.72-3.12-0.23-4.67-0.52c-1.88-0.34-3.85-0.72-4.19,1.79c-0.49,3.65-0.43,7.37-0.87,11.02
			c-0.53,4.44-1.44,8.83-2,13.27c-0.25,2-1.87,4.69,1.56,5.6C-136.13,108.9-134.19,108.85-132.33,109.03z"/>
		<path d="M-202.05,90.52c-0.34-1.99-0.8-3.96-1-5.96c-0.34-3.47-0.83-6.98-0.66-10.44c0.17-3.44,1.07-6.85,1.66-10.27
			c0.58-3.36,0.89-6.81,1.86-10.06c0.87-2.91,7.21-5.15,10.04-4.03c3.14,1.24,6.34,2.32,9.45,3.63c2.1,0.88,4.09,2.03,6.13,3.07
			c2.19,1.12,4.54,2.02,6.52,3.44c3.38,2.43,3.88,5.32,3.11,9.13c-0.35,1.72-0.12,3.55-0.37,5.3c-0.35,2.44-0.94,4.85-1.34,7.28
			c-0.3,1.87-0.53,3.76-0.67,5.65c-0.17,2.15,0.06,4.36-0.37,6.45c-0.76,3.7,0.31,8.39-3.98,10.44c-1.93,0.92-4.61,0.74-6.86,0.41
			c-2.34-0.34-4.61-1.37-6.84-2.27c-3.11-1.25-6.17-2.65-9.24-4.01c-1.35-0.6-2.96-0.96-3.93-1.94c-1.58-1.59-2.73-3.61-4.06-5.45
			C-202.41,90.77-202.23,90.64-202.05,90.52z M-185.23,93.44c0.36,0.79,0.41,1.25,0.65,1.38c2.13,1.1,4.27,2.18,6.46,3.16
			c0.3,0.13,1.14-0.24,1.27-0.57c0.55-1.34,1.01-2.72,1.34-4.13c0.7-2.95,1.48-5.9,1.9-8.9c0.66-4.68,1.21-9.39,1.49-14.11
			c0.11-1.84-0.16-4.06-1.16-5.49c-0.81-1.17-2.92-1.49-4.51-2.05c-0.58-0.21-1.83-0.16-1.87,0c-0.92,3.71-1.88,7.42-2.5,11.18
			c-0.53,3.23-0.5,6.54-1.01,9.77C-183.7,87.08-184.58,90.41-185.23,93.44z"/>
		<path d="M-84.52,72.11c-0.92,0.58-2.23,1.57-3.68,2.25c-1.16,0.54-2.81,0.37-3.65,1.16c-0.72,0.66-0.79,2.23-0.8,3.41
			c-0.04,5.22,0.06,10.43,0.08,15.65c0.01,1.73-0.15,3.47,0,5.19c0.02,0.18,1.71,0.06,2.54,0.35c1.48,0.51,3.84,0.93,4.13,1.89
			c0.74,2.5-1.3,3.65-3.51,4.4c-3.07,1.04-6.02,2.46-9.13,3.32c-2.52,0.7-5.21,1.14-7.82,1.11c-2.29-0.03-4.97-0.29-6.77-1.5
			c-2.6-1.75-3.31-4.81-2.92-8.09c0.38-3.16,0.32-6.38,0.57-9.56c0.17-2.19,0.48-4.38,0.86-6.55c0.4-2.29,0.4-4.93,1.58-6.76
			c2.87-4.44,6.56-7.82,12.53-8.05c3.5-0.13,7.01-1.41,10.4-2.51C-86.99,66.78-84.53,68.08-84.52,72.11z"/>
	</g>
</g>
<g>
	<path class="st0" d="M120.64,6c2.34-0.62,4.65-1.51,7.03-1.82c6-0.78,12.04-1.78,18.07-1.8c5.29-0.01,10.62,0.98,15.87,1.93
		c4.54,0.82,9.1,1.84,13.41,3.43c3.31,1.22,6.95,2.86,9.16,5.42c2.63,3.05,4.66,7.1,5.56,11.04c1.26,5.53,1.41,11.33,1.72,17.04
		c0.15,2.82-0.54,5.67-0.59,8.51c-0.07,3.73,0.2,7.47,0.14,11.2c-0.04,3.08-0.32,6.16-0.54,9.23c-0.34,4.82-0.71,9.64-1.09,14.45
		c-0.34,4.31-0.55,8.64-1.14,12.92c-0.52,3.8-1.47,7.53-2.27,11.29c-0.37,1.73-0.59,3.56-1.34,5.12c-0.39,0.82-1.73,1.27-2.72,1.71
		c-2.24,1-4.5,1.95-6.8,2.8c-1.51,0.56-3.1,0.88-4.65,1.34c-4.09,1.22-8.14,2.58-12.28,3.63c-2.02,0.51-4.18,0.41-6.27,0.65
		c-2.48,0.29-4.95,0.63-7.42,0.97c-3.28,0.45-6.54,1.01-9.83,1.35c-2.67,0.27-5.38,0.52-8.04,0.34c-3.91-0.27-7.83-0.69-11.66-1.47
		c-5.48-1.12-10.88-2.64-16.32-3.97c-3.49-0.86-7.03-1.57-10.47-2.6c-1.5-0.45-2.78-1.61-4.21-2.35c-2.92-1.51-5.87-2.97-8.82-4.43
		c-2.37-1.17-4.75-2.32-7.15-3.44c-2.64-1.24-5.28-2.48-7.97-3.62c-2.17-0.92-4.34-2.01-6.62-2.44c-2.93-0.55-5.98-0.48-8.97-0.73
		c-2.4-0.2-4.79-0.72-7.18-0.69c-2.85,0.03-5.73,0.28-8.52,0.84c-3.1,0.62-6.17,1.52-9.13,2.63c-2.43,0.92-4.76,2.21-6.99,3.56
		c-3.21,1.95-8.5-0.24-8.87-3.94c-0.21-2.09,0.12-4.24,0.12-6.36c-0.02-4.36-0.12-8.72-0.15-13.09c-0.02-5.09,0-10.18,0.01-15.27
		c0.01-4.48-0.03-8.97,0.05-13.45c0.07-4.03,0.33-8.06,0.38-12.09c0.01-0.97-1-2.25-0.64-2.86c0.71-1.23,1.89-2.41,3.16-3.06
		c3.16-1.61,6.42-3.11,9.76-4.27c3.41-1.19,6.93-2.23,10.49-2.81c5.49-0.89,11.05-1.75,16.59-1.82c3.98-0.05,7.98,1.17,11.95,1.9
		c3.26,0.6,6.63,0.98,9.72,2.09c4.58,1.65,8.99,3.8,13.42,5.85c3.12,1.44,6.16,3.04,9.21,4.62c1.6,0.83,3.14,1.8,4.71,2.69
		c0.16,0.09,0.52,0.14,0.53,0.11c0.3-0.76,0.76-1.53,0.79-2.3c0.11-3.13,0.08-6.27,0.11-9.41c0.02-2.23-0.3-4.55,0.18-6.68
		c1.15-5.07,2.66-10.03,7.26-13.31c2.04-1.46,3.67-3.62,5.87-4.71c2.88-1.43,6.13-2.13,9.24-3.11c1.33-0.42,2.69-0.76,4.04-1.14
		C120.57,5.76,120.61,5.88,120.64,6z M11.93,97.78c-0.02-0.02,0.3,0.42,0.49,0.37c4.14-1.06,8.22-2.51,12.42-3.17
		c4.61-0.73,9.33-0.95,14-1.02c3.85-0.06,7.73,0.19,11.54,0.72c3.02,0.42,6.02,1.29,8.91,2.31c2.37,0.84,4.56,2.19,6.83,3.31
		c3.77,1.86,7.55,3.72,11.31,5.59c3.05,1.52,6,3.27,9.14,4.57c4.85,2,9.76,3.9,14.76,5.45c3.41,1.05,7.01,1.51,10.55,2.08
		c4.57,0.74,9.16,1.49,13.77,1.92c2.42,0.23,4.91-0.2,7.37-0.37c2.34-0.16,4.7-0.26,7.03-0.57c2.16-0.29,4.29-0.86,6.45-1.21
		c3.33-0.54,6.7-0.88,10-1.55c1.91-0.39,3.69-1.33,5.57-1.92c1.8-0.57,3.68-0.9,5.45-1.54c1.78-0.65,3.6-1.35,5.18-2.38
		c2.23-1.45,5.23-2.8,6.13-4.95c1.43-3.38,1.48-7.37,1.95-11.12c0.53-4.18,0.89-8.38,1.32-12.57c0.6-5.91,1.27-11.82,1.75-17.74
		c0.17-2.17-0.15-4.38-0.18-6.57c-0.02-1.61,0.1-3.22,0.09-4.83c0-0.41-0.26-0.81-0.4-1.22c-0.6,0.5-1.24,0.95-1.8,1.5
		c-1.87,1.84-3.41,4.28-5.62,5.45c-3.7,1.95-7.74,3.38-11.79,4.5c-4.12,1.14-8.4,1.82-12.65,2.37c-2.83,0.37-5.74,0.05-8.6,0.23
		c-2.7,0.17-5.41,1-8.06,0.83c-4.12-0.27-8.24-0.92-12.28-1.82c-3.53-0.78-7.05-1.87-10.39-3.26c-5.28-2.2-10.41-4.77-15.6-7.2
		c-4.03-1.89-8.05-3.81-12.09-5.68c-3.54-1.64-7.09-3.27-10.67-4.8c-1.98-0.85-4.08-1.4-6.06-2.24c-1.65-0.7-3.15-1.78-4.83-2.39
		c-1.79-0.65-3.68-1.11-5.56-1.38c-4.8-0.7-9.62-1.68-14.44-1.72c-4.21-0.03-8.45,0.96-12.63,1.74c-3.2,0.59-6.36,1.45-9.49,2.38
		c-2.24,0.66-4.47,1.49-6.55,2.53c-1.08,0.54-2.5,1.64-2.63,2.63c-0.54,4.09-0.74,8.23-0.87,12.35c-0.14,4.37-0.11,8.74-0.06,13.11
		c0.06,5.34,0.14,10.68,0.36,16.01C11.19,90.12,11.6,93.71,11.93,97.78z M119.08,12.8c-5.15,0.81-9.12,3.71-12.56,7.39
		c-3.09,3.32-5.46,7.28-4.59,11.87c0.51,2.66,2.11,5.99,4.27,7.26c3.63,2.14,8.08,2.89,12.21,4.18c0.38,0.12,1.21-0.04,1.22-0.14
		c0.11-0.97,0.07-1.95,0.1-2.92c0.06-1.99,0.21-3.99,0.2-5.98c-0.02-2.81-0.99-5.97-0.02-8.34c0.98-2.38,3.63-4.33,5.96-5.81
		c2.11-1.34,4.73-2.13,7.23-2.58c4.74-0.84,9.54-1.6,14.34-1.76c5.21-0.17,10.38,0.57,14.87,3.7c3.82,2.66,6.08,6.24,6.41,10.9
		c0.26,3.78,0.43,7.58,0.44,11.37c0.01,2.96-0.36,5.92-0.42,8.88c-0.02,0.96,0.38,1.92,0.59,2.88c0.28-0.1,0.63-0.13,0.82-0.32
		c3.27-3.18,6.78-6.16,9.66-9.65c1.62-1.96,2.65-4.7,3.12-7.24c0.72-3.98,1-8.09,0.98-12.14c-0.02-3.84-2.41-6.67-5.59-8.46
		c-3.06-1.72-6.33-3.31-9.7-4.18c-5.32-1.36-10.77-2.45-16.23-2.95c-4.78-0.44-9.65-0.04-14.47,0.23c-2.77,0.15-5.53,0.66-8.25,1.23
		C126.1,10.97,122.6,11.93,119.08,12.8z M150.38,59.52c0.01-0.17,0.02-0.34,0.03-0.51c2.81-0.56,5.64-1.02,8.4-1.74
		c1.05-0.28,2.68-1.09,2.76-1.81c0.27-2.44-0.01-4.95-0.12-7.42c-0.02-0.35-0.27-0.69-0.41-1.04c-1.63,0.71-3.22,1.57-4.91,2.11
		c-3.19,1.03-6.39,2.35-9.67,2.68c-4.54,0.46-9.16,0.21-13.74,0.09c-2.84-0.08-5.68-0.39-8.49-0.78c-3.13-0.43-6.28-0.88-9.34-1.67
		c-3.58-0.92-7.05-2.24-10.58-3.33c-0.74-0.23-1.56-0.21-2.35-0.31c-0.12,1.15-0.26,2.3-0.34,3.46c-0.03,0.38-0.05,1.03,0.14,1.12
		c2.03,0.97,4.08,1.92,6.18,2.73c4,1.54,7.94,3.41,12.08,4.37c4.83,1.12,9.84,1.67,14.81,1.98
		C139.99,59.77,145.2,59.52,150.38,59.52z M148.64,28.8c2.28,0.23,2.07,1.72,2.06,3.57c-0.02,3.47,0.42,6.95,0.69,10.43
		c0.01,0.1,0.32,0.28,0.39,0.24c2.18-1.24,4.44-2.36,6.49-3.79c3.84-2.68,4.63-6.82,3.71-10.91c-0.4-1.77-2.69-3.83-4.54-4.39
		c-3.71-1.11-7.71-1.83-11.56-1.7c-5.66,0.2-11.28,1.31-15.97,4.98c-0.31,0.24-0.75,0.49-0.83,0.81c-0.13,0.55-0.05,1.67,0,1.68
		c2.89,0.18,5.79,0.47,8.67,0.31C141.36,29.81,144.95,29.23,148.64,28.8z M127.49,36.71c-0.11,0.71-0.28,1.44-0.33,2.17
		c-0.09,1.35,0.05,2.73-0.2,4.04c-0.5,2.61,1.37,1.64,2.46,1.71c2.58,0.16,5.16,0.25,7.75,0.29c2.09,0.03,4.19,0.04,6.27-0.13
		c0.49-0.04,1.31-0.82,1.32-1.28c0.04-1.84-0.13-3.69-0.33-5.53c-0.04-0.41-0.53-1.14-0.75-1.12c-2.78,0.3-5.55,0.97-8.33,1.01
		C133.03,37.9,130.72,37.22,127.49,36.71z"/>
	<polygon class="st0" points="176.33,118.25 176.33,118.2 176.37,118.22 	"/>
	<path class="st0" d="M46.45,89.37c-2.09-0.35-4.72-1.06-7.36-1.13c-2.02-0.05-4.09,0.6-6.09,1.12c-2.22,0.59-4.33,1.62-6.57,2.01
		c-1.51,0.27-3.7,0.34-4.61-0.53c-1.64-1.55-2.9-3.75-3.66-5.91c-0.77-2.19-0.82-4.65-1.04-7.01c-0.29-3.01-0.49-6.03-0.64-9.05
		c-0.13-2.56-0.42-5.18-0.09-7.69c0.37-2.84,1.07-5.72,2.16-8.35c0.82-1.97,2.15-4.13,3.87-5.24c2.46-1.59,5.47-2.36,8.28-3.38
		c1.87-0.68,3.77-1.31,5.7-1.76c2.38-0.56,4.81-0.99,7.23-1.36c4.63-0.72,11.92,2.85,13.72,6.98c0.99,2.27,1.19,4.94,1.4,7.46
		c0.19,2.33-0.14,4.7-0.12,7.04c0.02,4.13,0.1,8.26,0.21,12.39c0.11,4.22-0.11,8.29-3.16,11.7C53.25,89.35,50.27,89.67,46.45,89.37z
		 M45.35,81.24c0.27,0.22,0.54,0.44,0.8,0.67c1.48-1.59,3.46-2.97,4.29-4.85c0.79-1.8,0.43-4.12,0.5-6.21
		c0.08-2.37,0.08-4.74,0.12-7.11c0.03-1.66,0.07-3.32,0.12-4.98c0.06-2.11,0.22-4.22,0.14-6.32c-0.03-0.68-0.61-1.84-1.07-1.92
		c-2.58-0.41-5.2-0.6-7.81-0.71c-0.35-0.02-1.03,0.81-1.05,1.27c-0.17,3.11-0.13,6.22-0.29,9.33c-0.14,2.67-0.49,5.34-0.66,8.01
		c-0.17,2.69-0.29,5.38-0.31,8.07c-0.01,1.31-0.17,3.3,0.55,3.79C41.91,81.1,43.77,80.97,45.35,81.24z M54.08,87.77
		c0.05-0.03,0.07-0.05,0.1-0.07c-0.04-0.03-0.07-0.07-0.11-0.1c-0.01-0.01-0.05,0.04-0.08,0.06C54.02,87.7,54.05,87.73,54.08,87.77z
		"/>
	<path class="st0" d="M133.91,115.46c-3.34-0.31-6.98-0.79-10.63-0.95c-3.61-0.16-7.34,0.55-10.82-0.13
		c-3.16-0.62-6.18-2.39-9.02-4.06c-3.32-1.96-3.9-5.32-3.45-8.89c0.49-3.81,1.02-7.62,1.59-11.43c0.38-2.57,0.84-5.12,1.3-7.67
		c0.52-2.91,0.64-5.98,1.74-8.65c0.84-2.07,2.59-4.46,4.52-5.21c2.5-0.98,5.61-0.82,8.39-0.52c3.12,0.34,6.13,1.61,9.24,2.07
		c3.56,0.53,7.41-0.06,10.7,1.09c2.51,0.88,4.88,3.37,6.31,5.75c1.11,1.86,0.97,4.66,0.88,7.02c-0.16,4.19-0.74,8.36-1.07,12.54
		c-0.2,2.5-0.14,5.04-0.46,7.52c-0.23,1.8-0.47,3.87-1.49,5.23c-1.68,2.24-3.97,4.04-6.05,5.96
		C135.3,115.4,134.69,115.32,133.91,115.46z M131.32,109.03c1.72-0.19,4.56-4.17,4.63-6.51c0.06-2.07,0.2-4.14,0.48-6.19
		c0.26-1.95,0.95-3.85,1.09-5.8c0.22-3.16,0.33-6.35,0.12-9.5c-0.09-1.34-0.75-3.18-1.75-3.77c-1.23-0.72-3.12-0.23-4.67-0.52
		c-1.88-0.34-3.85-0.72-4.19,1.79c-0.49,3.65-0.43,7.37-0.87,11.02c-0.53,4.44-1.44,8.83-2,13.27c-0.25,2-1.87,4.69,1.56,5.6
		C127.52,108.9,129.45,108.85,131.32,109.03z"/>
	<path class="st0" d="M61.6,90.52c-0.34-1.99-0.8-3.96-1-5.96c-0.34-3.47-0.83-6.98-0.66-10.44c0.17-3.44,1.07-6.85,1.66-10.27
		c0.58-3.36,0.89-6.81,1.86-10.06c0.87-2.91,7.21-5.15,10.04-4.03c3.14,1.24,6.34,2.32,9.45,3.63c2.1,0.88,4.09,2.03,6.13,3.07
		c2.19,1.12,4.54,2.02,6.52,3.44c3.38,2.43,3.88,5.32,3.11,9.13c-0.35,1.72-0.12,3.55-0.37,5.3C98,76.77,97.4,79.18,97,81.61
		c-0.3,1.87-0.53,3.76-0.67,5.65c-0.17,2.15,0.06,4.36-0.37,6.45c-0.76,3.7,0.31,8.39-3.98,10.44c-1.93,0.92-4.61,0.74-6.86,0.41
		c-2.34-0.34-4.61-1.37-6.84-2.27c-3.11-1.25-6.17-2.65-9.24-4.01c-1.35-0.6-2.96-0.96-3.93-1.94c-1.58-1.59-2.73-3.61-4.06-5.45
		C61.24,90.77,61.42,90.64,61.6,90.52z M78.41,93.44c0.36,0.79,0.41,1.25,0.65,1.38c2.13,1.1,4.27,2.18,6.46,3.16
		c0.3,0.13,1.14-0.24,1.27-0.57c0.55-1.34,1.01-2.72,1.34-4.13c0.7-2.95,1.48-5.9,1.9-8.9c0.66-4.68,1.21-9.39,1.49-14.11
		c0.11-1.84-0.16-4.06-1.16-5.49c-0.81-1.17-2.92-1.49-4.51-2.05c-0.58-0.21-1.83-0.16-1.87,0c-0.92,3.71-1.88,7.42-2.5,11.18
		c-0.53,3.23-0.5,6.54-1.01,9.77C79.95,87.08,79.07,90.41,78.41,93.44z"/>
	<path class="st0" d="M179.13,72.11c-0.92,0.58-2.23,1.57-3.68,2.25c-1.16,0.54-2.81,0.37-3.65,1.16c-0.72,0.66-0.79,2.23-0.8,3.41
		c-0.04,5.22,0.06,10.43,0.08,15.65c0.01,1.73-0.15,3.47,0,5.19c0.02,0.18,1.71,0.06,2.54,0.35c1.48,0.51,3.84,0.93,4.13,1.89
		c0.74,2.5-1.3,3.65-3.51,4.4c-3.07,1.04-6.02,2.46-9.13,3.32c-2.52,0.7-5.21,1.14-7.82,1.11c-2.29-0.03-4.97-0.29-6.77-1.5
		c-2.6-1.75-3.31-4.81-2.92-8.09c0.38-3.16,0.32-6.38,0.57-9.56c0.17-2.19,0.48-4.38,0.86-6.55c0.4-2.29,0.4-4.93,1.58-6.76
		c2.87-4.44,6.56-7.82,12.53-8.05c3.5-0.13,7.01-1.41,10.4-2.51C176.66,66.78,179.12,68.08,179.13,72.11z"/>
</g>
</svg>
