<?xml version="1.0" encoding="utf-8"?>
<!-- Generator: Adobe Illustrator 25.2.0, SVG Export Plug-In . SVG Version: 6.00 Build 0)  -->
<svg version="1.1" id="Layer_1" xmlns="http://www.w3.org/2000/svg" xmlns:xlink="http://www.w3.org/1999/xlink" x="0px" y="0px"
	 viewBox="0 0 196.8 132.8" style="enable-background:new 0 0 196.8 132.8;" xml:space="preserve">
<style type="text/css">
	.st0{fill:#FFFFFF;}
</style>
<path class="st0" d="M129.5,132.1c-0.7,0-1.5,0-2.1-0.1c-4.7-0.3-8.6-0.8-12.1-1.5c-3.8-0.8-7.6-1.7-11.2-2.7
	c-1.7-0.4-3.5-0.9-5.2-1.3c-1.1-0.3-2.2-0.5-3.3-0.8c-2.4-0.6-4.9-1.1-7.3-1.9c-1.4-0.4-2.6-1.2-3.5-1.8c-0.5-0.3-0.9-0.6-1.3-0.8
	c-2.9-1.5-5.8-2.9-8.7-4.4c-2.6-1.3-4.9-2.4-7.2-3.5c-2.7-1.3-5.2-2.5-7.9-3.6c-0.4-0.2-0.8-0.4-1.3-0.5c-1.7-0.7-3.2-1.4-4.6-1.7
	c-1.7-0.3-3.6-0.4-5.4-0.5c-1.1-0.1-2.1-0.1-3.2-0.2c-1-0.1-1.9-0.2-2.8-0.3c-1.3-0.2-2.7-0.4-3.9-0.4h-0.1c-2.9,0-5.5,0.3-7.9,0.8
	c-2.8,0.6-5.7,1.4-8.6,2.5c-2.3,0.9-4.7,2.2-6.4,3.3c-1.3,0.8-2.9,1.2-4.6,1.2c-4.9,0-9.2-3.4-9.6-7.8c-0.2-1.6-0.1-3.1,0-4.5
	c0-0.8,0.1-1.6,0.1-2.2c0-2.3,0-4.6-0.1-6.9l0-0.2c0-2-0.1-4-0.1-6c0-4.1,0-8.2,0-12.3l0-3c0-1.3,0-2.6,0-3.9c0-3.1,0-6.4,0.1-9.6
	c0-1.9,0.1-3.9,0.2-5.8c0.1-1.8,0.1-3.5,0.2-5.3l0-0.7l-0.2-0.6c-0.6-1.7-0.6-3.1,0.1-4.2c1.1-1.8,2.8-3.5,4.6-4.4
	c3.9-2,7.1-3.4,10.2-4.5c4.2-1.5,7.8-2.4,11.1-3c6-1,11.5-1.8,17.1-1.9l0.3,0c3.2,0,6.3,0.7,9.1,1.3c1.1,0.2,2.1,0.5,3.2,0.7
	c0.7,0.1,1.5,0.3,2.2,0.4c2.6,0.4,5.4,0.9,8.1,1.9c4,1.4,7.9,3.2,11.6,5l2.1,1c1.6,0.7,3.2,1.5,5.3,2.6l5,2.6l0.1-6.3
	c0-0.6,0-1.1,0-1.7l0-0.1c-0.1-1.7-0.1-3.6,0.3-5.6c0.9-4.1,2.5-11,8.6-15.4c0.6-0.5,1.3-1.1,2-1.7c1.2-1.1,2.6-2.4,4.4-3.3
	c2.4-1.2,4.9-1.9,7.2-2.6l0.1,0c0.8-0.2,1.6-0.5,2.4-0.7c0.9-0.3,1.9-0.6,2.8-0.8c0.4-0.1,0.9-0.2,1.3-0.4l3.6-1l0,0.1l3.3-0.6
	c0.2,0,0.5-0.1,0.7-0.1c1-0.1,2.1-0.3,3.1-0.4c5-0.7,10.2-1.4,15.4-1.4h0.1c5.5,0,10.8,1,16,1.9l0.4,0.1c5.8,1,10.1,2.2,14,3.6
	c3.5,1.3,7.8,3.2,10.6,6.4c3,3.5,5.3,8,6.3,12.5c1.2,5.1,1.4,10.4,1.7,15.5l0.1,2.2c0.1,1.9-0.1,3.7-0.3,5.4
	c-0.1,1.1-0.3,2.3-0.3,3.4c0,1.8,0,3.6,0.1,5.5c0.1,1.9,0.1,3.8,0.1,5.7c0,2.6-0.2,5.2-0.4,7.6l-0.1,1.8c-0.3,4.8-0.7,9.7-1.1,14.5
	c-0.1,1.1-0.2,2.2-0.2,3.2c-0.2,3.2-0.5,6.6-0.9,9.9c-0.4,3-1.1,5.8-1.7,8.6l-0.1,0.2c-0.2,0.9-0.4,1.8-0.6,2.7
	c-0.1,0.4-0.2,0.7-0.2,1.1c-0.3,1.5-0.6,3.2-1.4,4.8c-0.9,1.9-2.8,2.7-4,3.2l-0.4,0.2c-2.6,1.2-4.9,2.1-7,2.9
	c-1.1,0.4-2.2,0.7-3.3,1l-0.1,0c-0.5,0.1-1,0.3-1.5,0.4c-1.2,0.4-2.5,0.8-3.7,1.1c-2.8,0.9-5.7,1.8-8.7,2.5
	c-1.6,0.4-3.2,0.5-4.7,0.6l-0.2,0c-0.6,0-1.2,0.1-1.9,0.1c-2.4,0.3-4.9,0.6-7.3,0.9c-1.2,0.2-2.3,0.3-3.3,0.5
	c-2.2,0.3-4.4,0.7-6.7,0.9C133.8,131.9,131.7,132.1,129.5,132.1z"/>
<g>
	<g>
		<path d="M-142,7.8c2.3-0.6,4.6-1.5,7-1.8c6-0.8,12-1.8,18.1-1.8c5.3,0,10.6,1,15.9,1.9c4.5,0.8,9.1,1.8,13.4,3.4
			c3.3,1.2,6.9,2.9,9.2,5.4c2.6,3,4.7,7.1,5.6,11c1.3,5.5,1.4,11.3,1.7,17c0.2,2.8-0.5,5.7-0.6,8.5c-0.1,3.7,0.2,7.5,0.1,11.2
			c0,3.1-0.3,6.2-0.5,9.2c-0.3,4.8-0.7,9.6-1.1,14.4c-0.3,4.3-0.6,8.6-1.1,12.9c-0.5,3.8-1.5,7.5-2.3,11.3c-0.4,1.7-0.6,3.6-1.3,5.1
			c-0.4,0.8-1.7,1.3-2.7,1.7c-2.2,1-4.5,1.9-6.8,2.8c-1.5,0.6-3.1,0.9-4.7,1.3c-4.1,1.2-8.1,2.6-12.3,3.6c-2,0.5-4.2,0.4-6.3,0.7
			c-2.5,0.3-4.9,0.6-7.4,1c-3.3,0.4-6.5,1-9.8,1.3c-2.7,0.3-5.4,0.5-8,0.3c-3.9-0.3-7.8-0.7-11.7-1.5c-5.5-1.1-10.9-2.6-16.3-4
			c-3.5-0.9-7-1.6-10.5-2.6c-1.5-0.4-2.8-1.6-4.2-2.3c-2.9-1.5-5.9-3-8.8-4.4c-2.4-1.2-4.8-2.3-7.1-3.4c-2.6-1.2-5.3-2.5-8-3.6
			c-2.2-0.9-4.3-2-6.6-2.4c-2.9-0.6-6-0.5-9-0.7c-2.4-0.2-4.8-0.7-7.2-0.7c-2.9,0-5.7,0.3-8.5,0.8c-3.1,0.6-6.2,1.5-9.1,2.6
			c-2.4,0.9-4.8,2.2-7,3.6c-3.2,1.9-8.5-0.2-8.9-3.9c-0.2-2.1,0.1-4.2,0.1-6.4c0-4.4-0.1-8.7-0.1-13.1c0-5.1,0-10.2,0-15.3
			c0-4.5,0-9,0-13.5c0.1-4,0.3-8.1,0.4-12.1c0-1-1-2.2-0.6-2.9c0.7-1.2,1.9-2.4,3.2-3.1c3.2-1.6,6.4-3.1,9.8-4.3
			c3.4-1.2,6.9-2.2,10.5-2.8c5.5-0.9,11.1-1.7,16.6-1.8c4,0,8,1.2,11.9,1.9c3.3,0.6,6.6,1,9.7,2.1c4.6,1.7,9,3.8,13.4,5.8
			c3.1,1.4,6.2,3,9.2,4.6c1.6,0.8,3.1,1.8,4.7,2.7c0.2,0.1,0.5,0.1,0.5,0.1c0.3-0.8,0.8-1.5,0.8-2.3c0.1-3.1,0.1-6.3,0.1-9.4
			c0-2.2-0.3-4.5,0.2-6.7c1.1-5.1,2.7-10,7.3-13.3c2-1.5,3.7-3.6,5.9-4.7c2.9-1.4,6.1-2.1,9.2-3.1c1.3-0.4,2.7-0.8,4-1.1
			C-142.1,7.6-142,7.7-142,7.8z M-250.7,99.6c0,0,0.3,0.4,0.5,0.4c4.1-1.1,8.2-2.5,12.4-3.2c4.6-0.7,9.3-0.9,14-1
			c3.9-0.1,7.7,0.2,11.5,0.7c3,0.4,6,1.3,8.9,2.3c2.4,0.8,4.6,2.2,6.8,3.3c3.8,1.9,7.6,3.7,11.3,5.6c3.1,1.5,6,3.3,9.1,4.6
			c4.9,2,9.8,3.9,14.8,5.4c3.4,1.1,7,1.5,10.6,2.1c4.6,0.7,9.2,1.5,13.8,1.9c2.4,0.2,4.9-0.2,7.4-0.4c2.3-0.2,4.7-0.3,7-0.6
			c2.2-0.3,4.3-0.9,6.4-1.2c3.3-0.5,6.7-0.9,10-1.6c1.9-0.4,3.7-1.3,5.6-1.9c1.8-0.6,3.7-0.9,5.4-1.5c1.8-0.7,3.6-1.3,5.2-2.4
			c2.2-1.4,5.2-2.8,6.1-4.9c1.4-3.4,1.5-7.4,1.9-11.1c0.5-4.2,0.9-8.4,1.3-12.6c0.6-5.9,1.3-11.8,1.8-17.7c0.2-2.2-0.2-4.4-0.2-6.6
			c0-1.6,0.1-3.2,0.1-4.8c0-0.4-0.3-0.8-0.4-1.2c-0.6,0.5-1.2,1-1.8,1.5c-1.9,1.8-3.4,4.3-5.6,5.5c-3.7,2-7.7,3.4-11.8,4.5
			c-4.1,1.1-8.4,1.8-12.7,2.4c-2.8,0.4-5.7,0.1-8.6,0.2c-2.7,0.2-5.4,1-8.1,0.8c-4.1-0.3-8.2-0.9-12.3-1.8
			c-3.5-0.8-7.1-1.9-10.4-3.3c-5.3-2.2-10.4-4.8-15.6-7.2c-4-1.9-8.1-3.8-12.1-5.7c-3.5-1.6-7.1-3.3-10.7-4.8
			c-2-0.8-4.1-1.4-6.1-2.2c-1.6-0.7-3.1-1.8-4.8-2.4c-1.8-0.7-3.7-1.1-5.6-1.4c-4.8-0.7-9.6-1.7-14.4-1.7c-4.2,0-8.4,1-12.6,1.7
			c-3.2,0.6-6.4,1.5-9.5,2.4c-2.2,0.7-4.5,1.5-6.6,2.5c-1.1,0.5-2.5,1.6-2.6,2.6c-0.5,4.1-0.7,8.2-0.9,12.3
			c-0.1,4.4-0.1,8.7-0.1,13.1c0.1,5.3,0.1,10.7,0.4,16C-251.5,91.9-251.1,95.5-250.7,99.6z M-143.6,14.6c-5.1,0.8-9.1,3.7-12.6,7.4
			c-3.1,3.3-5.5,7.3-4.6,11.9c0.5,2.7,2.1,6,4.3,7.3c3.6,2.1,8.1,2.9,12.2,4.2c0.4,0.1,1.2,0,1.2-0.1c0.1-1,0.1-2,0.1-2.9
			c0.1-2,0.2-4,0.2-6c0-2.8-1-6,0-8.3c1-2.4,3.6-4.3,6-5.8c2.1-1.3,4.7-2.1,7.2-2.6c4.7-0.8,9.5-1.6,14.3-1.8
			c5.2-0.2,10.4,0.6,14.9,3.7c3.8,2.7,6.1,6.2,6.4,10.9c0.3,3.8,0.4,7.6,0.4,11.4c0,3-0.4,5.9-0.4,8.9c0,1,0.4,1.9,0.6,2.9
			c0.3-0.1,0.6-0.1,0.8-0.3c3.3-3.2,6.8-6.2,9.7-9.7c1.6-2,2.7-4.7,3.1-7.2c0.7-4,1-8.1,1-12.1c0-3.8-2.4-6.7-5.6-8.5
			c-3.1-1.7-6.3-3.3-9.7-4.2c-5.3-1.4-10.8-2.4-16.2-2.9c-4.8-0.4-9.7,0-14.5,0.2c-2.8,0.1-5.5,0.7-8.2,1.2
			C-136.6,12.8-140.1,13.7-143.6,14.6z M-112.3,61.3c0-0.2,0-0.3,0-0.5c2.8-0.6,5.6-1,8.4-1.7c1.1-0.3,2.7-1.1,2.8-1.8
			c0.3-2.4,0-5-0.1-7.4c0-0.3-0.3-0.7-0.4-1c-1.6,0.7-3.2,1.6-4.9,2.1c-3.2,1-6.4,2.3-9.7,2.7c-4.5,0.5-9.2,0.2-13.7,0.1
			c-2.8-0.1-5.7-0.4-8.5-0.8c-3.1-0.4-6.3-0.9-9.3-1.7c-3.6-0.9-7.1-2.2-10.6-3.3c-0.7-0.2-1.6-0.2-2.4-0.3
			c-0.1,1.2-0.3,2.3-0.3,3.5c0,0.4-0.1,1,0.1,1.1c2,1,4.1,1.9,6.2,2.7c4,1.5,7.9,3.4,12.1,4.4c4.8,1.1,9.8,1.7,14.8,2
			C-122.7,61.6-117.5,61.3-112.3,61.3z M-114,30.6c2.3,0.2,2.1,1.7,2.1,3.6c0,3.5,0.4,7,0.7,10.4c0,0.1,0.3,0.3,0.4,0.2
			c2.2-1.2,4.4-2.4,6.5-3.8c3.8-2.7,4.6-6.8,3.7-10.9c-0.4-1.8-2.7-3.8-4.5-4.4c-3.7-1.1-7.7-1.8-11.6-1.7c-5.7,0.2-11.3,1.3-16,5
			c-0.3,0.2-0.8,0.5-0.8,0.8c-0.1,0.5-0.1,1.7,0,1.7c2.9,0.2,5.8,0.5,8.7,0.3C-121.3,31.6-117.7,31-114,30.6z M-135.2,38.5
			c-0.1,0.7-0.3,1.4-0.3,2.2c-0.1,1.3,0.1,2.7-0.2,4c-0.5,2.6,1.4,1.6,2.5,1.7c2.6,0.2,5.2,0.2,7.7,0.3c2.1,0,4.2,0,6.3-0.1
			c0.5,0,1.3-0.8,1.3-1.3c0-1.8-0.1-3.7-0.3-5.5c0-0.4-0.5-1.1-0.8-1.1c-2.8,0.3-5.6,1-8.3,1C-129.6,39.7-131.9,39-135.2,38.5z"/>
		<polygon points="-86.3,120.1 -86.3,120 -86.3,120 		"/>
		<path d="M-216.2,91.2c-2.1-0.3-4.7-1.1-7.4-1.1c-2-0.1-4.1,0.6-6.1,1.1c-2.2,0.6-4.3,1.6-6.6,2c-1.5,0.3-3.7,0.3-4.6-0.5
			c-1.6-1.6-2.9-3.8-3.7-5.9c-0.8-2.2-0.8-4.7-1-7c-0.3-3-0.5-6-0.6-9.1c-0.1-2.6-0.4-5.2-0.1-7.7c0.4-2.8,1.1-5.7,2.2-8.4
			c0.8-2,2.1-4.1,3.9-5.2c2.5-1.6,5.5-2.4,8.3-3.4c1.9-0.7,3.8-1.3,5.7-1.8c2.4-0.6,4.8-1,7.2-1.4c4.6-0.7,11.9,2.8,13.7,7
			c1,2.3,1.2,4.9,1.4,7.5c0.2,2.3-0.1,4.7-0.1,7c0,4.1,0.1,8.3,0.2,12.4c0.1,4.2-0.1,8.3-3.2,11.7
			C-209.4,91.2-212.4,91.5-216.2,91.2z M-217.3,83c0.3,0.2,0.5,0.4,0.8,0.7c1.5-1.6,3.5-3,4.3-4.8c0.8-1.8,0.4-4.1,0.5-6.2
			c0.1-2.4,0.1-4.7,0.1-7.1c0-1.7,0.1-3.3,0.1-5c0.1-2.1,0.2-4.2,0.1-6.3c0-0.7-0.6-1.8-1.1-1.9c-2.6-0.4-5.2-0.6-7.8-0.7
			c-0.4,0-1,0.8-1.1,1.3c-0.2,3.1-0.1,6.2-0.3,9.3c-0.1,2.7-0.5,5.3-0.7,8c-0.2,2.7-0.3,5.4-0.3,8.1c0,1.3-0.2,3.3,0.6,3.8
			C-220.7,82.9-218.9,82.8-217.3,83z M-208.6,89.6c0.1,0,0.1-0.1,0.1-0.1c0,0-0.1-0.1-0.1-0.1c0,0-0.1,0-0.1,0.1
			C-208.6,89.5-208.6,89.5-208.6,89.6z"/>
		<path d="M-128.7,117.3c-3.3-0.3-7-0.8-10.6-0.9c-3.6-0.2-7.3,0.6-10.8-0.1c-3.2-0.6-6.2-2.4-9-4.1c-3.3-2-3.9-5.3-3.4-8.9
			c0.5-3.8,1-7.6,1.6-11.4c0.4-2.6,0.8-5.1,1.3-7.7c0.5-2.9,0.6-6,1.7-8.7c0.8-2.1,2.6-4.5,4.5-5.2c2.5-1,5.6-0.8,8.4-0.5
			c3.1,0.3,6.1,1.6,9.2,2.1c3.6,0.5,7.4-0.1,10.7,1.1c2.5,0.9,4.9,3.4,6.3,5.8c1.1,1.9,1,4.7,0.9,7c-0.2,4.2-0.7,8.4-1.1,12.5
			c-0.2,2.5-0.1,5-0.5,7.5c-0.2,1.8-0.5,3.9-1.5,5.2c-1.7,2.2-4,4-6.1,6C-127.4,117.2-128,117.1-128.7,117.3z M-131.3,110.8
			c1.7-0.2,4.6-4.2,4.6-6.5c0.1-2.1,0.2-4.1,0.5-6.2c0.3-1.9,0.9-3.8,1.1-5.8c0.2-3.2,0.3-6.3,0.1-9.5c-0.1-1.3-0.8-3.2-1.8-3.8
			c-1.2-0.7-3.1-0.2-4.7-0.5c-1.9-0.3-3.9-0.7-4.2,1.8c-0.5,3.7-0.4,7.4-0.9,11c-0.5,4.4-1.4,8.8-2,13.3c-0.2,2-1.9,4.7,1.6,5.6
			C-135.1,110.7-133.2,110.7-131.3,110.8z"/>
		<path d="M-201.1,92.3c-0.3-2-0.8-4-1-6c-0.3-3.5-0.8-7-0.7-10.4c0.2-3.4,1.1-6.8,1.7-10.3c0.6-3.4,0.9-6.8,1.9-10.1
			c0.9-2.9,7.2-5.2,10-4c3.1,1.2,6.3,2.3,9.4,3.6c2.1,0.9,4.1,2,6.1,3.1c2.2,1.1,4.5,2,6.5,3.4c3.4,2.4,3.9,5.3,3.1,9.1
			c-0.4,1.7-0.1,3.6-0.4,5.3c-0.4,2.4-0.9,4.8-1.3,7.3c-0.3,1.9-0.5,3.8-0.7,5.7c-0.2,2.2,0.1,4.4-0.4,6.4c-0.8,3.7,0.3,8.4-4,10.4
			c-1.9,0.9-4.6,0.7-6.9,0.4c-2.3-0.3-4.6-1.4-6.8-2.3c-3.1-1.2-6.2-2.7-9.2-4c-1.4-0.6-3-1-3.9-1.9c-1.6-1.6-2.7-3.6-4.1-5.4
			C-201.4,92.6-201.2,92.4-201.1,92.3z M-184.2,95.2c0.4,0.8,0.4,1.2,0.6,1.4c2.1,1.1,4.3,2.2,6.5,3.2c0.3,0.1,1.1-0.2,1.3-0.6
			c0.6-1.3,1-2.7,1.3-4.1c0.7-2.9,1.5-5.9,1.9-8.9c0.7-4.7,1.2-9.4,1.5-14.1c0.1-1.8-0.2-4.1-1.2-5.5c-0.8-1.2-2.9-1.5-4.5-2.1
			c-0.6-0.2-1.8-0.2-1.9,0c-0.9,3.7-1.9,7.4-2.5,11.2c-0.5,3.2-0.5,6.5-1,9.8C-182.7,88.9-183.6,92.2-184.2,95.2z"/>
		<path d="M-83.5,73.9c-0.9,0.6-2.2,1.6-3.7,2.2c-1.2,0.5-2.8,0.4-3.7,1.2c-0.7,0.7-0.8,2.2-0.8,3.4c0,5.2,0.1,10.4,0.1,15.7
			c0,1.7-0.2,3.5,0,5.2c0,0.2,1.7,0.1,2.5,0.3c1.5,0.5,3.8,0.9,4.1,1.9c0.7,2.5-1.3,3.7-3.5,4.4c-3.1,1-6,2.5-9.1,3.3
			c-2.5,0.7-5.2,1.1-7.8,1.1c-2.3,0-5-0.3-6.8-1.5c-2.6-1.8-3.3-4.8-2.9-8.1c0.4-3.2,0.3-6.4,0.6-9.6c0.2-2.2,0.5-4.4,0.9-6.6
			c0.4-2.3,0.4-4.9,1.6-6.8c2.9-4.4,6.6-7.8,12.5-8.1c3.5-0.1,7-1.4,10.4-2.5C-86,68.6-83.5,69.9-83.5,73.9z"/>
	</g>
</g>
<path d="M121.6,7.8c2.3-0.6,4.7-1.5,7-1.8c6-0.8,12-1.8,18.1-1.8c5.3,0,10.6,1,15.9,1.9c4.5,0.8,9.1,1.8,13.4,3.4
	c3.3,1.2,6.9,2.9,9.2,5.4c2.6,3,4.7,7.1,5.6,11c1.3,5.5,1.4,11.3,1.7,17c0.1,2.8-0.5,5.7-0.6,8.5c-0.1,3.7,0.2,7.5,0.1,11.2
	c0,3.1-0.3,6.2-0.5,9.2c-0.3,4.8-0.7,9.6-1.1,14.4c-0.3,4.3-0.6,8.6-1.1,12.9c-0.5,3.8-1.5,7.5-2.3,11.3c-0.4,1.7-0.6,3.6-1.3,5.1
	c-0.4,0.8-1.7,1.3-2.7,1.7c-2.2,1-4.5,1.9-6.8,2.8c-1.5,0.6-3.1,0.9-4.6,1.3c-4.1,1.2-8.1,2.6-12.3,3.6c-2,0.5-4.2,0.4-6.3,0.7
	c-2.5,0.3-4.9,0.6-7.4,1c-3.3,0.4-6.5,1-9.8,1.3c-2.7,0.3-5.4,0.5-8,0.3c-3.9-0.3-7.8-0.7-11.7-1.5c-5.5-1.1-10.9-2.6-16.3-4
	c-3.5-0.9-7-1.6-10.5-2.6c-1.5-0.4-2.8-1.6-4.2-2.3c-2.9-1.5-5.9-3-8.8-4.4c-2.4-1.2-4.8-2.3-7.2-3.4c-2.6-1.2-5.3-2.5-8-3.6
	c-2.2-0.9-4.3-2-6.6-2.4c-2.9-0.6-6-0.5-9-0.7c-2.4-0.2-4.8-0.7-7.2-0.7c-2.8,0-5.7,0.3-8.5,0.8c-3.1,0.6-6.2,1.5-9.1,2.6
	c-2.4,0.9-4.8,2.2-7,3.6c-3.2,1.9-8.5-0.2-8.9-3.9c-0.2-2.1,0.1-4.2,0.1-6.4c0-4.4-0.1-8.7-0.2-13.1c0-5.1,0-10.2,0-15.3
	c0-4.5,0-9,0.1-13.5c0.1-4,0.3-8.1,0.4-12.1c0-1-1-2.2-0.6-2.9c0.7-1.2,1.9-2.4,3.2-3.1c3.2-1.6,6.4-3.1,9.8-4.3
	c3.4-1.2,6.9-2.2,10.5-2.8c5.5-0.9,11.1-1.7,16.6-1.8c4,0,8,1.2,12,1.9c3.3,0.6,6.6,1,9.7,2.1c4.6,1.7,9,3.8,13.4,5.8
	c3.1,1.4,6.2,3,9.2,4.6c1.6,0.8,3.1,1.8,4.7,2.7c0.2,0.1,0.5,0.1,0.5,0.1c0.3-0.8,0.8-1.5,0.8-2.3c0.1-3.1,0.1-6.3,0.1-9.4
	c0-2.2-0.3-4.5,0.2-6.7c1.2-5.1,2.7-10,7.3-13.3c2-1.5,3.7-3.6,5.9-4.7c2.9-1.4,6.1-2.1,9.2-3.1c1.3-0.4,2.7-0.8,4-1.1
	C121.6,7.6,121.6,7.7,121.6,7.8z M12.9,99.6c0,0,0.3,0.4,0.5,0.4c4.1-1.1,8.2-2.5,12.4-3.2c4.6-0.7,9.3-0.9,14-1
	c3.8-0.1,7.7,0.2,11.5,0.7c3,0.4,6,1.3,8.9,2.3c2.4,0.8,4.6,2.2,6.8,3.3c3.8,1.9,7.6,3.7,11.3,5.6c3.1,1.5,6,3.3,9.1,4.6
	c4.8,2,9.8,3.9,14.8,5.4c3.4,1.1,7,1.5,10.6,2.1c4.6,0.7,9.2,1.5,13.8,1.9c2.4,0.2,4.9-0.2,7.4-0.4c2.3-0.2,4.7-0.3,7-0.6
	c2.2-0.3,4.3-0.9,6.4-1.2c3.3-0.5,6.7-0.9,10-1.6c1.9-0.4,3.7-1.3,5.6-1.9c1.8-0.6,3.7-0.9,5.4-1.5c1.8-0.7,3.6-1.3,5.2-2.4
	c2.2-1.4,5.2-2.8,6.1-4.9c1.4-3.4,1.5-7.4,1.9-11.1c0.5-4.2,0.9-8.4,1.3-12.6c0.6-5.9,1.3-11.8,1.8-17.7c0.2-2.2-0.1-4.4-0.2-6.6
	c0-1.6,0.1-3.2,0.1-4.8c0-0.4-0.3-0.8-0.4-1.2c-0.6,0.5-1.2,1-1.8,1.5c-1.9,1.8-3.4,4.3-5.6,5.5c-3.7,2-7.7,3.4-11.8,4.5
	c-4.1,1.1-8.4,1.8-12.6,2.4c-2.8,0.4-5.7,0.1-8.6,0.2c-2.7,0.2-5.4,1-8.1,0.8c-4.1-0.3-8.2-0.9-12.3-1.8c-3.5-0.8-7.1-1.9-10.4-3.3
	c-5.3-2.2-10.4-4.8-15.6-7.2c-4-1.9-8.1-3.8-12.1-5.7c-3.5-1.6-7.1-3.3-10.7-4.8c-2-0.8-4.1-1.4-6.1-2.2c-1.7-0.7-3.2-1.8-4.8-2.4
	c-1.8-0.7-3.7-1.1-5.6-1.4c-4.8-0.7-9.6-1.7-14.4-1.7c-4.2,0-8.5,1-12.6,1.7c-3.2,0.6-6.4,1.5-9.5,2.4c-2.2,0.7-4.5,1.5-6.5,2.5
	c-1.1,0.5-2.5,1.6-2.6,2.6c-0.5,4.1-0.7,8.2-0.9,12.3c-0.1,4.4-0.1,8.7-0.1,13.1c0.1,5.3,0.1,10.7,0.4,16
	C12.2,91.9,12.6,95.5,12.9,99.6z M120.1,14.6c-5.2,0.8-9.1,3.7-12.6,7.4c-3.1,3.3-5.5,7.3-4.6,11.9c0.5,2.7,2.1,6,4.3,7.3
	c3.6,2.1,8.1,2.9,12.2,4.2c0.4,0.1,1.2,0,1.2-0.1c0.1-1,0.1-2,0.1-2.9c0.1-2,0.2-4,0.2-6c0-2.8-1-6,0-8.3c1-2.4,3.6-4.3,6-5.8
	c2.1-1.3,4.7-2.1,7.2-2.6c4.7-0.8,9.5-1.6,14.3-1.8c5.2-0.2,10.4,0.6,14.9,3.7c3.8,2.7,6.1,6.2,6.4,10.9c0.3,3.8,0.4,7.6,0.4,11.4
	c0,3-0.4,5.9-0.4,8.9c0,1,0.4,1.9,0.6,2.9c0.3-0.1,0.6-0.1,0.8-0.3c3.3-3.2,6.8-6.2,9.7-9.7c1.6-2,2.6-4.7,3.1-7.2
	c0.7-4,1-8.1,1-12.1c0-3.8-2.4-6.7-5.6-8.5c-3.1-1.7-6.3-3.3-9.7-4.2c-5.3-1.4-10.8-2.4-16.2-2.9c-4.8-0.4-9.6,0-14.5,0.2
	c-2.8,0.1-5.5,0.7-8.2,1.2C127.1,12.8,123.6,13.7,120.1,14.6z M151.4,61.3c0-0.2,0-0.3,0-0.5c2.8-0.6,5.6-1,8.4-1.7
	c1.1-0.3,2.7-1.1,2.8-1.8c0.3-2.4,0-5-0.1-7.4c0-0.3-0.3-0.7-0.4-1c-1.6,0.7-3.2,1.6-4.9,2.1c-3.2,1-6.4,2.3-9.7,2.7
	c-4.5,0.5-9.2,0.2-13.7,0.1c-2.8-0.1-5.7-0.4-8.5-0.8c-3.1-0.4-6.3-0.9-9.3-1.7c-3.6-0.9-7.1-2.2-10.6-3.3c-0.7-0.2-1.6-0.2-2.3-0.3
	c-0.1,1.2-0.3,2.3-0.3,3.5c0,0.4-0.1,1,0.1,1.1c2,1,4.1,1.9,6.2,2.7c4,1.5,7.9,3.4,12.1,4.4c4.8,1.1,9.8,1.7,14.8,2
	C141,61.6,146.2,61.3,151.4,61.3z M149.6,30.6c2.3,0.2,2.1,1.7,2.1,3.6c0,3.5,0.4,7,0.7,10.4c0,0.1,0.3,0.3,0.4,0.2
	c2.2-1.2,4.4-2.4,6.5-3.8c3.8-2.7,4.6-6.8,3.7-10.9c-0.4-1.8-2.7-3.8-4.5-4.4c-3.7-1.1-7.7-1.8-11.6-1.7c-5.7,0.2-11.3,1.3-16,5
	c-0.3,0.2-0.8,0.5-0.8,0.8c-0.1,0.5-0.1,1.7,0,1.7c2.9,0.2,5.8,0.5,8.7,0.3C142.4,31.6,145.9,31,149.6,30.6z M128.5,38.5
	c-0.1,0.7-0.3,1.4-0.3,2.2c-0.1,1.3,0.1,2.7-0.2,4c-0.5,2.6,1.4,1.6,2.5,1.7c2.6,0.2,5.2,0.2,7.8,0.3c2.1,0,4.2,0,6.3-0.1
	c0.5,0,1.3-0.8,1.3-1.3c0-1.8-0.1-3.7-0.3-5.5c0-0.4-0.5-1.1-0.8-1.1c-2.8,0.3-5.6,1-8.3,1C134,39.7,131.7,39,128.5,38.5z"/>
<polygon points="177.3,120.1 177.3,120 177.4,120 "/>
<path d="M47.4,91.2c-2.1-0.3-4.7-1.1-7.4-1.1c-2-0.1-4.1,0.6-6.1,1.1c-2.2,0.6-4.3,1.6-6.6,2c-1.5,0.3-3.7,0.3-4.6-0.5
	c-1.6-1.6-2.9-3.8-3.7-5.9c-0.8-2.2-0.8-4.7-1-7c-0.3-3-0.5-6-0.6-9.1c-0.1-2.6-0.4-5.2-0.1-7.7c0.4-2.8,1.1-5.7,2.2-8.4
	c0.8-2,2.1-4.1,3.9-5.2c2.5-1.6,5.5-2.4,8.3-3.4c1.9-0.7,3.8-1.3,5.7-1.8c2.4-0.6,4.8-1,7.2-1.4c4.6-0.7,11.9,2.8,13.7,7
	c1,2.3,1.2,4.9,1.4,7.5c0.2,2.3-0.1,4.7-0.1,7c0,4.1,0.1,8.3,0.2,12.4c0.1,4.2-0.1,8.3-3.2,11.7C54.2,91.2,51.3,91.5,47.4,91.2z
	 M46.3,83c0.3,0.2,0.5,0.4,0.8,0.7c1.5-1.6,3.5-3,4.3-4.8c0.8-1.8,0.4-4.1,0.5-6.2c0.1-2.4,0.1-4.7,0.1-7.1c0-1.7,0.1-3.3,0.1-5
	c0.1-2.1,0.2-4.2,0.1-6.3c0-0.7-0.6-1.8-1.1-1.9c-2.6-0.4-5.2-0.6-7.8-0.7c-0.3,0-1,0.8-1,1.3c-0.2,3.1-0.1,6.2-0.3,9.3
	c-0.1,2.7-0.5,5.3-0.7,8c-0.2,2.7-0.3,5.4-0.3,8.1c0,1.3-0.2,3.3,0.5,3.8C42.9,82.9,44.8,82.8,46.3,83z M55.1,89.6
	C55.1,89.5,55.1,89.5,55.1,89.6c0.1-0.1,0-0.1,0-0.2c0,0,0,0-0.1,0.1C55,89.5,55,89.5,55.1,89.6z"/>
<path d="M134.9,117.3c-3.3-0.3-7-0.8-10.6-0.9c-3.6-0.2-7.3,0.6-10.8-0.1c-3.2-0.6-6.2-2.4-9-4.1c-3.3-2-3.9-5.3-3.4-8.9
	c0.5-3.8,1-7.6,1.6-11.4c0.4-2.6,0.8-5.1,1.3-7.7c0.5-2.9,0.6-6,1.7-8.7c0.8-2.1,2.6-4.5,4.5-5.2c2.5-1,5.6-0.8,8.4-0.5
	c3.1,0.3,6.1,1.6,9.2,2.1c3.6,0.5,7.4-0.1,10.7,1.1c2.5,0.9,4.9,3.4,6.3,5.8c1.1,1.9,1,4.7,0.9,7c-0.2,4.2-0.7,8.4-1.1,12.5
	c-0.2,2.5-0.1,5-0.5,7.5c-0.2,1.8-0.5,3.9-1.5,5.2c-1.7,2.2-4,4-6.1,6C136.3,117.2,135.7,117.1,134.9,117.3z M132.3,110.8
	c1.7-0.2,4.6-4.2,4.6-6.5c0.1-2.1,0.2-4.1,0.5-6.2c0.3-1.9,0.9-3.8,1.1-5.8c0.2-3.2,0.3-6.3,0.1-9.5c-0.1-1.3-0.8-3.2-1.8-3.8
	c-1.2-0.7-3.1-0.2-4.7-0.5c-1.9-0.3-3.9-0.7-4.2,1.8c-0.5,3.7-0.4,7.4-0.9,11c-0.5,4.4-1.4,8.8-2,13.3c-0.2,2-1.9,4.7,1.6,5.6
	C128.5,110.7,130.4,110.7,132.3,110.8z"/>
<path d="M62.6,92.3c-0.3-2-0.8-4-1-6c-0.3-3.5-0.8-7-0.7-10.4c0.2-3.4,1.1-6.8,1.7-10.3c0.6-3.4,0.9-6.8,1.9-10.1
	c0.9-2.9,7.2-5.2,10-4c3.1,1.2,6.3,2.3,9.4,3.6c2.1,0.9,4.1,2,6.1,3.1c2.2,1.1,4.5,2,6.5,3.4c3.4,2.4,3.9,5.3,3.1,9.1
	c-0.3,1.7-0.1,3.6-0.4,5.3C99,78.6,98.4,81,98,83.4c-0.3,1.9-0.5,3.8-0.7,5.7c-0.2,2.2,0.1,4.4-0.4,6.4c-0.8,3.7,0.3,8.4-4,10.4
	c-1.9,0.9-4.6,0.7-6.9,0.4c-2.3-0.3-4.6-1.4-6.8-2.3c-3.1-1.2-6.2-2.7-9.2-4c-1.3-0.6-3-1-3.9-1.9c-1.6-1.6-2.7-3.6-4.1-5.4
	C62.2,92.6,62.4,92.4,62.6,92.3z M79.4,95.2c0.4,0.8,0.4,1.2,0.7,1.4c2.1,1.1,4.3,2.2,6.5,3.2c0.3,0.1,1.1-0.2,1.3-0.6
	c0.6-1.3,1-2.7,1.3-4.1c0.7-2.9,1.5-5.9,1.9-8.9c0.7-4.7,1.2-9.4,1.5-14.1c0.1-1.8-0.2-4.1-1.2-5.5c-0.8-1.2-2.9-1.5-4.5-2.1
	c-0.6-0.2-1.8-0.2-1.9,0c-0.9,3.7-1.9,7.4-2.5,11.2c-0.5,3.2-0.5,6.5-1,9.8C80.9,88.9,80.1,92.2,79.4,95.2z"/>
<path d="M180.1,73.9c-0.9,0.6-2.2,1.6-3.7,2.2c-1.2,0.5-2.8,0.4-3.6,1.2c-0.7,0.7-0.8,2.2-0.8,3.4c0,5.2,0.1,10.4,0.1,15.7
	c0,1.7-0.1,3.5,0,5.2c0,0.2,1.7,0.1,2.5,0.3c1.5,0.5,3.8,0.9,4.1,1.9c0.7,2.5-1.3,3.7-3.5,4.4c-3.1,1-6,2.5-9.1,3.3
	c-2.5,0.7-5.2,1.1-7.8,1.1c-2.3,0-5-0.3-6.8-1.5c-2.6-1.8-3.3-4.8-2.9-8.1c0.4-3.2,0.3-6.4,0.6-9.6c0.2-2.2,0.5-4.4,0.9-6.6
	c0.4-2.3,0.4-4.9,1.6-6.8c2.9-4.4,6.6-7.8,12.5-8.1c3.5-0.1,7-1.4,10.4-2.5C177.7,68.6,180.1,69.9,180.1,73.9z"/>
</svg>
